<?xml version="1.0" encoding="UTF-8"?>
<svg id="Layer_2" data-name="Layer 2" xmlns="http://www.w3.org/2000/svg" xmlns:xlink="http://www.w3.org/1999/xlink" viewBox="0 0 170.17 156.3">
  <defs>
    <style>
      .cls-1 {
        fill: #e59986;
      }

      .cls-2 {
        fill: #ecccaa;
      }

      .cls-3 {
        fill: url(#linear-gradient-2);
      }

      .cls-4 {
        fill: #b6b66f;
      }

      .cls-5 {
        fill: #9e9e9d;
      }

      .cls-6 {
        fill: #fff;
      }

      .cls-7 {
        fill: #f18e8b;
      }

      .cls-8 {
        fill: url(#linear-gradient-4);
      }

      .cls-9 {
        fill: #ffafab;
      }

      .cls-10 {
        fill: url(#linear-gradient-3);
      }

      .cls-11 {
        fill: url(#linear-gradient-5);
      }

      .cls-12 {
        fill: #b298ba;
      }

      .cls-13 {
        fill: url(#linear-gradient-6);
      }

      .cls-14 {
        fill: #b1ae74;
      }

      .cls-15 {
        fill: #fdbe78;
      }

      .cls-16 {
        fill: url(#linear-gradient);
      }

      .cls-17 {
        fill: #ffba7e;
      }

      .cls-18 {
        fill: #916c80;
      }
    </style>
    <linearGradient id="linear-gradient" x1="146.73" y1="590.98" x2="159.4" y2="590.98" gradientTransform="translate(0 665.78) scale(1 -1)" gradientUnits="userSpaceOnUse">
      <stop offset=".13" stop-color="#96925f"/>
      <stop offset=".58" stop-color="#74764c"/>
      <stop offset=".88" stop-color="#646942"/>
    </linearGradient>
    <linearGradient id="linear-gradient-2" x1="158.02" y1="596.43" x2="166.68" y2="596.43" gradientTransform="translate(0 665.78) scale(1 -1)" gradientUnits="userSpaceOnUse">
      <stop offset=".12" stop-color="#646942"/>
      <stop offset=".42" stop-color="#74764c"/>
      <stop offset=".87" stop-color="#96925f"/>
    </linearGradient>
    <linearGradient id="linear-gradient-3" x1="151.59" y1="624.94" x2="151.59" y2="617.34" gradientTransform="translate(0 665.78) scale(1 -1)" gradientUnits="userSpaceOnUse">
      <stop offset=".13" stop-color="#f3a159"/>
      <stop offset=".59" stop-color="#ffba7e"/>
    </linearGradient>
    <linearGradient id="linear-gradient-4" x1="148.63" y1="615.79" x2="149.42" y2="618.3" xlink:href="#linear-gradient-2"/>
    <linearGradient id="linear-gradient-5" x1="149.68" y1="591.02" x2="154.86" y2="591.02" xlink:href="#linear-gradient-2"/>
    <linearGradient id="linear-gradient-6" x1="129.24" y1="582.23" x2="140.62" y2="582.23" xlink:href="#linear-gradient"/>
  </defs>
  <g id="Layer_1-2" data-name="Layer 1">
    <g>
      <path class="cls-6" d="M65.97,59.79c-4.12,0-7.13-1.05-9.04-3.11-2.56-2.86-2.16-6.88-1.86-8.44.1-.45.1-1,.1-1.51-.2-5.22,2.61-8.39,4.37-9.79.4-.35.55-.9.4-1.46-1.46-4.42-.4-7.13.75-8.59.65-.85,1.05-2.01,1.1-3.31.2-3.77,2.96-6.58,4.57-7.93.4-.3.65-.75.8-1.26,1.15-3.92,3.87-6.88,5.88-8.69,2.61-2.31,5.88-4.02,9.44-4.82,7.83-1.81,15.87-.4,18.93.3.85.2,1.66.5,2.36.95,1.1.7,2.46,1.61,4.07,2.71,1.41,1,2.71,1.71,4.02,2.21,2.81,1.1,5.22,3.36,6.78,5.02.7.75,1.36,1.66,1.91,2.61l2.36,4.07c1.96,3.31,1.81,7.48-.35,10.55-.8,1.1-1.56,1.71-1.56,1.71-.35.25-.8.2-1.05-.15s-.2-.8.15-1.05c0,0,.6-.45,1.26-1.36,1.81-2.56,1.96-6.08.3-8.89l-2.36-4.07c-.5-.85-1.1-1.66-1.71-2.36-1.15-1.26-3.52-3.57-6.18-4.62-1.41-.55-2.81-1.31-4.32-2.36-1.61-1.1-2.96-2.01-4.02-2.71-.55-.35-1.21-.6-1.91-.75-2.96-.65-10.7-2.06-18.23-.3-3.31.75-6.33,2.31-8.79,4.47-1.91,1.71-4.37,4.42-5.42,7.98-.25.75-.7,1.46-1.31,1.96-1.15.95-3.87,3.57-4.07,6.88-.1,1.66-.6,3.06-1.46,4.17-.95,1.15-1.76,3.36-.5,7.18.35,1.1,0,2.36-.85,3.06-1.51,1.26-4.02,4.02-3.82,8.59.05.65,0,1.26-.15,1.86-.25,1.36-.65,4.77,1.51,7.13,1.91,2.11,5.32,2.96,10.19,2.51.4-.05.8.25.8.7.05.4-.25.8-.7.8-.8.05-1.61.1-2.41.1Z"/>
      <path class="cls-6" d="M61.4,72.34c-.2.35-.65.55-1,.35-.45-.2-11-5.57-15.77-23.7-.95-3.52-2.36-6.63-4.27-9.24-2.81-3.82-7.78-8.39-15.67-8.24-7.13.15-13.81,4.17-17.43,10.5C1.19,52.71.94,67.22,1.84,77.47c.4,4.87,1.41,9.89,2.96,14.86,3.92,12.75,12.2,42.99,7.08,57.05,1.51-.8,3.77-2.46,5.83-5.83,4.22-6.88,7.28-22.7-.05-52.43-.05-.15-.05-.25-.1-.4-.1-.4.55.55.95.45.2-.05.4,0,.55.05.15.3.3.6.45.85.2.9.45,1.86.65,2.76,3.82,16.47,6.28,37.36-1.21,49.51-3.67,5.98-8.08,7.03-8.29,7.08h-.15c-.25,0-.45-.1-.6-.3-.2-.25-.2-.55-.1-.8,6.33-12.7-2.41-44.59-6.43-57.7-1.56-5.12-2.61-10.24-3.01-15.22-.9-10.5-.65-25.31,5.62-36.36,3.87-6.83,11.05-11.15,18.73-11.3,8.54-.15,13.91,4.72,16.87,8.84,2.01,2.76,3.57,6.03,4.52,9.74,4.62,17.48,14.91,22.7,15.01,22.75.25.4.4.85.25,1.26Z"/>
      <path class="cls-6" d="M111.16,35.08c-.15,0-.3-.05-.4-.1-3.36-2.21-10.6-1.15-10.7-1.15-.4.05-.8-.2-.85-.65-.05-.4.2-.8.65-.85.3-.05,7.88-1.15,11.75,1.36.35.25.45.7.2,1.05-.15.25-.4.35-.65.35Z"/>
      <path class="cls-6" d="M105.89,42.57c-2.66,0-5.22-1.86-5.32-1.96-.35-.25-.4-.7-.15-1.05.25-.35.7-.4,1.05-.15.05.05,3.92,2.86,6.48,1.05.35-.25.8-.15,1.05.15.25.35.15.8-.15,1.05-.95.7-1.96.9-2.96.9Z"/>
      <path class="cls-6" d="M85.1,17.06c-.15,0-.35-.05-.45-.15-.3-.25-.4-.7-.15-1.05.1-.1,2.26-2.86,7.78-3.26,1.61-.1,3.16-.6,4.47-1.41l3.06-1.91c1.31-.8,2.81-1.21,4.32-1.21s3.01.3,4.47.8c.4.15.6.6.45.95-.15.4-.6.6-.95.45-1.26-.45-2.61-.7-3.92-.7s-2.46.35-3.52,1l-3.06,1.91c-1.51.95-3.31,1.51-5.17,1.61-4.77.35-6.68,2.66-6.68,2.71-.2.15-.45.25-.65.25Z"/>
      <path class="cls-6" d="M77.62,24.64c-.2,0-.4-.1-.55-.25-.25-.3-.25-.8.1-1.05.15-.15,3.77-3.16,12.2-2.56,2.51.2,4.92-.1,7.08-.9,2.06-.75,3.57-1.81,4.47-3.11l.05-.05c.25-.3.45-.65.75-.95.75-.85,2.31-2.41,4.12-3.11.4-.15.8.05.95.4s-.05.8-.4.95c-1.51.6-2.86,1.96-3.57,2.71-.2.25-.4.55-.65.85l-.05.05c-1.1,1.56-2.81,2.76-5.17,3.62-2.36.9-4.92,1.21-7.68,1-7.73-.6-11.05,2.16-11.1,2.16-.2.2-.4.25-.55.25Z"/>
      <path class="cls-6" d="M67.52,22.48c-.25,0-.55-.15-.65-.4-.2-.35-.05-.8.35-1,0,0,1.96-1,3.97-2.06,2.26-1.26,4.27-2.86,5.93-4.87l3.06-3.67c.25-.3.75-.35,1.05-.1s.35.75.1,1.05l-3.06,3.67c-1.81,2.16-3.92,3.92-6.38,5.27-2.01,1.1-3.97,2.06-3.97,2.11h-.4Z"/>
      <path class="cls-6" d="M66.42,45.58c-1.05,0-2.01-.3-2.76-.95-3.16-2.56-2.16-9.64-2.11-9.94.05-.4.45-.7.85-.65.4.05.7.45.65.85-.25,1.81-.5,6.88,1.61,8.54.9.75,2.21.8,3.97.15.4-.15.8.05.95.45.15.4-.05.8-.45.95-1,.45-1.91.6-2.71.6Z"/>
      <path class="cls-6" d="M120,112.87c-.2,0-.4-.1-.45-.3-11.65-30.63-28.72-35.9-28.87-35.95-.25-.1-.4-.35-.35-.6.1-.25.35-.4.6-.35.7.2,17.68,5.47,29.53,36.56.1.25-.05.55-.3.65-.05,0-.1,0-.15,0Z"/>
      <path class="cls-6" d="M105.89,97.7c1.81,2.86,7.98,13.76,8.14,25.66l1.1-1.26s.35-13.81-9.09-24.51c-.1-.1-.2,0-.15.1Z"/>
      <path class="cls-6" d="M87.66,113.32h0c-.3,0-.55-.2-.65-.5-.7-2.41-4.72-12.55-13.81-23.1-.1-.15.05-.3.2-.2,2.56,1.96,9.49,8.44,14.91,22.85.15.45-.2.95-.65.95Z"/>
      <path class="cls-6" d="M74.2,102.17c2.86,3.62,14.71,19.48,19.79,40.12.05.3.45.3.55,0l.25-.75c.15-.5.15-1,.05-1.51-1.26-4.42-8.03-26.92-20.49-37.96-.1-.1-.2,0-.15.1Z"/>
      <path class="cls-6" d="M25.84,139.63h0c.25.15.55.1.8-.05,2.01-1.46,10.65-9.54,4.07-34.85,0,0,5.32,24.96-4.97,33.64-.45.3-.4,1,.1,1.26Z"/>
      <path class="cls-6" d="M103.88,69.83c-.5,0-.85-.05-.85-.05-13.86-1.91-21.09-13.16-21.39-13.66-.2-.35-.1-.8.25-1.05.35-.2.8-.1,1.05.25.05.1,7.13,11.15,20.34,12.96.05,0,1.71.3,2.81-.7.9-.85,1.26-2.41,1-4.67-.1-.95.45-1.86,1.36-2.21.3-.1.55-.25.8-.35.6-.3.6-.9.55-1.1,0-.2-.15-.75-.85-.9-1.41-.3-3.31-.6-4.77-.3-.4.1-.8-.15-.9-.55-.1-.4.15-.8.55-.9,1.71-.4,3.92-.05,5.42.3,1.05.25,1.86,1.1,2.01,2.16.15,1.1-.4,2.11-1.36,2.61-.3.15-.65.3-1,.45-.25.1-.4.35-.35.6.3,2.76-.2,4.77-1.46,5.93-1.05,1-2.36,1.21-3.21,1.21Z"/>
      <path class="cls-6" d="M109.86,58.48c-.25,0-.5-.2-.5-.5s.2-.5.5-.5h0s1.36-.05,2.11-1.1c.65-.9.7-2.26.15-4.02-.1-.25.05-.55.35-.6.25-.1.55.05.6.35.6,2.11.5,3.77-.3,4.92-1,1.41-2.81,1.46-2.91,1.46q.05,0,0,0Z"/>
      <path class="cls-6" d="M97.5,26.14c-.05.05-.1.05-.1.1h0c-.15.1-.3.2-.45.3-1.05.75-2.01,1.56-3.01,2.36-1.1.95-2.21,1.91-3.16,2.96-.25.25-.45.55-.7.8-.25.3-.5.6-.75.85-.5.55-1.05,1.1-1.61,1.61-1.15,1-2.56,1.81-4.02,2.26-1.46.5-3.01.6-4.52.6-1.31,0-2.56-.15-3.82-.25-.2,0-.4-.05-.6-.05h0c-.2,0-.35,0-.55-.05-.65-.05-1.26,0-1.91.05-.6.05-1.15.2-1.71.4-1.31.45-2.41,1.31-3.41,2.31-.25.25-.6.25-.85,0s-.25-.6,0-.85h0c1.1-1.05,2.41-2.01,3.92-2.51.95-.35,1.96-.45,2.96-.5.55,0,1.1,0,1.61.05h.05c.15,0,.25,0,.4.05h0c1.31.1,2.61.25,3.92.25,1.41,0,2.86-.15,4.17-.6,1.36-.45,2.51-1.15,3.62-2.11.55-.45,1-.95,1.51-1.51.25-.25.45-.55.7-.85.25-.3.45-.6.7-.85,1.46-1.61,2.96-3.11,4.47-4.62.5-.5,1-.95,1.51-1.46.55,0,1.1.05,1.71.1,0,0,.1,0,.25.05.05.4-.05.8-.3,1.1Z"/>
      <path class="cls-6" d="M75.21,36.69c-.05.3-.2.55-.5.6h-.05s-.25.1-.55.4c-.7.7-1.76,2.51-1.26,7.03.2,1.76.05,3.92-.4,6.33v.1c-1.71,8.54-7.58,20.19-17.98,28.07-.85.65-1.66,1.31-2.41,2.06-1.51,1.46-2.81,3.16-3.97,4.97h0c-2.81,4.62-4.47,10.29-4.77,16.67-.5,10.19,2.51,21.54,8.34,31.89.2.35.1.8-.3,1-.1.05-.25.1-.35.1-.25,0-.5-.15-.65-.4-2.96-5.22-5.22-10.75-6.68-16.22h0c-.6-2.36-1.1-4.67-1.41-6.98-.45-3.21-.6-6.38-.45-9.49.3-6.58,2.01-12.45,4.92-17.27.05-.1.1-.15.15-.25h0c1.81-2.86,4.02-5.37,6.63-7.33,1.96-1.46,4.02-3.46,6.08-5.77.35-.4.65-.75,1-1.15,2.76-3.36,5.42-7.28,7.43-11.4.25-.45.45-.95.65-1.41.85-1.91,1.51-3.87,2.01-5.77h0c.15-.7.3-1.36.4-2.06.3-1.91.4-3.77.2-5.57-.4-3.62.15-5.83.9-7.13.3-.5.6-.9.85-1.15.55,0,1.1,0,1.61.05h.05c.25.1.4.1.5.1Z"/>
      <path class="cls-6" d="M72.19,51.6c-.5.4-.95.65-1.41.9-.5.25-1,.45-1.56.65-1.05.35-2.26.45-3.36.25-.15-.05-.3-.05-.4-.1l-.4-.15c-.25-.1-.55-.15-.8-.3l-.75-.4-.65-.5c-.1-.1-.2-.15-.3-.25l-.3-.3-.55-.6c-.3-.45-.6-.9-.9-1.31-.15-.2-.1-.5.1-.65s.5-.1.65.1l.05.05c.3.4.6.8.9,1.15l.5.5.25.25c.1.1.2.15.3.2l.55.4.65.3c.2.1.45.15.65.25l.35.1c.1,0,.25.05.35.05.9.15,1.86,0,2.71-.35.45-.15.85-.35,1.31-.6.4-.25.8-.55,1.15-.8h.05c.3-.25.8-.25,1.05.1.15.25.1.75-.2,1.05h0Z"/>
      <path class="cls-6" d="M81.89,46.03c0,.4-.35.75-.75.75h-.05c-.65-.05-1.15-.2-1.71-.35-.55-.2-1.05-.45-1.56-.75-.95-.6-1.76-1.51-2.26-2.51l-.35-.75c-.1-.25-.15-.5-.25-.8l-.1-.4-.05-.4-.1-.8c-.05-.55-.05-1.05-.05-1.61l.05-.65.05-.4.05-.5c0-.05,0-.1.05-.15.15,0,.25,0,.4.05h0c.05.05.05.1.05.15v1.56c.05.5.1,1,.15,1.51l.15.7.1.35.15.35c.1.25.15.45.25.7l.35.65c.5.8,1.21,1.51,2.01,1.91.4.25.85.4,1.31.5.45.1.95.2,1.31.2h.05c.4-.05.75.3.75.7Z"/>
      <path class="cls-6" d="M116.94,36.94c0,1-.05,3.31-.1,4.87-.05.75.5,2.06,1,3.36.8,2.06,1.56,4.02.95,5.32-.6,1.36-1.56,1.31-2.51,1.31-.8-.05-1.86-.05-3.57.5-.6.2-1.15.3-1.66.3-.65,0-1.26-.15-1.76-.5-1.41-1-1.51-3.01-1.51-3.06,0-.4.3-.75.75-.75h0c.4,0,.75.3.75.75,0,.35.2,1.46.85,1.91.45.35,1.21.35,2.11.05,1.96-.65,3.26-.6,4.07-.6q.85.05,1.05-.4c.3-.7-.45-2.66-1-4.12-.6-1.51-1.1-2.91-1.1-3.97.05-2.01.1-5.27.1-5.32,0-.3.15-.55.45-.7,1.46-.65,2.46-1.76,2.96-3.36,1.51-4.72-1.56-12.2-3.46-16.12-.3,2.66-1.41,4.87-3.16,6.58-5.17,4.87-14.51,3.77-14.86,3.72-.15,0-.3-.05-.4-.05-.95-.1-1.81-.1-2.66-.1-7.28-.05-9.54,2.31-9.54,2.31-3.97,3.97-8.99,2.56-10.44,2.06-.6-.2-1.1-.35-1.56-.45-5.47-1.05-7.43,2.16-7.48,2.21-.2.35-.65.5-1.05.25-.35-.2-.5-.65-.25-1,.1-.15,2.51-4.17,9.04-2.91.55.1,1.05.25,1.76.5,1.61.55,5.62,1.56,8.84-1.66.3-.35,3.26-3.21,12.15-2.76.55,0,1.1.05,1.71.1,0,0,.1,0,.25.05,1.51.15,9.24.65,13.46-3.31,2.11-1.96,3.01-4.82,2.76-8.44,0-.35.2-.65.55-.75s.7.05.85.35c.3.5,7.23,12.7,4.92,19.94-.5,1.71-1.61,3.06-3.26,3.92Z"/>
      <path class="cls-6" d="M93.13,96.35c-6.73,0-17.73-9.04-17.83-9.14-4.22-3.52-18.23-11.2-27.22-.8-.25.3-.75.35-1.05.1s-.35-.75-.1-1.05c9.79-11.3,24.86-3.11,29.33.65,4.07,3.36,13.81,9.94,18.13,8.64.95-.3,1.56-.95,1.86-2.01,1.41-4.67-.95-7.18-3.21-9.64-1.26-1.36-2.46-2.66-2.96-4.22-1.41-4.42,2.86-12.81,3.01-13.16.2-.35.65-.5,1-.35.35.2.5.65.35,1-.05.1-4.17,8.19-2.91,12.05.4,1.26,1.51,2.41,2.61,3.67,2.31,2.46,5.17,5.57,3.57,11.1-.45,1.61-1.46,2.61-2.86,3.06-.55.05-1.1.1-1.71.1Z"/>
      <path class="cls-6" d="M28.56,85.75c0,1.1-.05,2.16-.2,3.26-.15,1.21-.45,2.41-.9,3.57-.2.6-.5,1.15-.8,1.71-.15.25-.3.5-.55.8-.25.25-.5.5-.8.7-.6.4-1.36.55-2.06.5s-1.36-.25-1.96-.55c-.4-.2-.75-.45-1.1-.75-.65-.55-1.21-1.26-1.61-1.96-.35-.6-.65-1.21-.9-1.81-.7-1.61-1.05-3.31-1.41-5.02-.8-4.72-.9-9.44-.8-14.16.15-4.72.5-9.44,1.1-14.11.05-.2.25-.35.45-.35s.35.2.35.45h0c-.5,4.67-.8,9.34-.9,14.01-.05,4.67.1,9.39.95,13.96.35,1.86.85,3.72,1.66,5.37.15.3.3.6.45.85.05.05.1.15.1.2.6.95,1.36,1.76,2.26,2.21.45.25.95.35,1.41.4.45,0,.9-.1,1.31-.35.4-.25.65-.6.95-1.1.25-.45.5-.95.7-1.51.4-1.05.65-2.16.75-3.26.2-1.76.15-3.52,0-5.32-.15-1.26-.25-2.51-.35-3.77h0l-.15-2.31c.05.4.6,3.67.95,3.67.3,0,.55.1.7.25.05.25.1.5.2.75.05,1.31.15,2.46.2,3.67Z"/>
      <path class="cls-6" d="M39.45,82.24c-.1,1.51-.35,3.06-1.05,4.52-.35.7-.8,1.41-1.46,1.91-.65.5-1.46.8-2.26.9-.2.05-.4.05-.6.05h-.6l-.6-.05-.6-.2c-.75-.25-1.51-.7-2.06-1.26-.15-.15-.3-.3-.4-.45l-.4-.45c-.2-.35-.45-.65-.65-1-.05-.1-.15-.25-.2-.35-.1-.25-.25-.45-.35-.7-.15-.35-.3-.7-.45-1.05-.5-1.41-.9-2.81-1.15-4.27-.3-1.56-.5-3.16-.65-4.72-.25-3.01-.3-6.08-.2-9.14,0-.4.35-.75.8-.7.4,0,.75.35.7.8h0c-.2,2.96-.2,5.98-.05,8.94.15,2.16.4,4.37.9,6.48.05.25.1.5.2.75.15.5.3,1,.45,1.46.1.35.25.7.4,1,.15.35.3.65.45.95.15.35.4.6.55.9l.35.4c.1.15.2.25.35.4.5.5,1.05.9,1.71,1.1l.5.15.5.1c.15.05.35.05.5.05h.5c.7-.05,1.36-.3,1.91-.7.55-.4,1-.95,1.31-1.61.65-1.26.95-2.76,1.1-4.22h0c0-.15.15-.25.3-.25.15-.05.25.05.25.25Z"/>
      <path class="cls-6" d="M38.6,128.59c-.3,0-.55-.15-.7-.45-.15-.4,0-.8.35-1,.1-.05,5.02-2.56,4.02-14.76-.05-.4.25-.8.7-.8.4-.05.8.25.8.7,1.1,13.41-4.67,16.12-4.92,16.22,0,.1-.1.1-.25.1Z"/>
      <g>
        <path class="cls-14" d="M138.63,60.54s.35.8-.65.55c-1-.2-2.36.2-2.51,1s1.91,2.71,2.76,2.21,2.01-.75,2.56-.6c.6.2-2.16-3.16-2.16-3.16Z"/>
        <path class="cls-14" d="M144.66,58.73s-1.76-2.46-2.61-2.06c-.8.4.25,4.32,1.05,4.62,1.46.55-.5,5.22-.45,5.77s.35,0,1.66-5.57c.3-1.26,4.77-12.05,4.77-12.05h-.45c.05.05-3.67,8.19-3.97,9.29Z"/>
        <path class="cls-1" d="M136.82,55.67s-.35-4.07-.95-5.93c-.6-1.86-4.52.85-5.22,3.21s.6,4.22,2.01,4.32c1.36.05,4.07-.85,4.17-1.61Z"/>
        <path class="cls-12" d="M168.86,59.04c0,2.21-1.21,3.36-2.66,3.46-1.46.05-1.31-.7-2.96-.5-1,.1-2.16.45-3.06.5-.6.05-1.1-.05-1.36-.4-.75-.9-.7-1.1-1.86-1.56q-.05,0-.1-.05c-1.05-.5-.7-2.41-.45-2.81.3-.4.4-1.76.05-2.31,0,0-1.21-1.41,0-2.46s1.41-2.26,2.51-1.56,1.91.45,3.01.1,2.41-.5,2.96.7c.5,1.21-1.36,3.16-1,3.92.35.8,4.92.75,4.92,2.96Z"/>
        <path class="cls-16" d="M146.92,80.03h-.1c-.1-.05-.15-.15-.1-.25.05-.1,4.32-7.98,12.4-10.19.1-.05.2.05.25.15s-.05.2-.15.25c-7.93,2.16-12.15,9.94-12.2,9.99.05,0-.05.05-.1.05Z"/>
        <path class="cls-17" d="M161.03,68.23s1.46-3.26,5.07-3.52c4.52-.3,5.93,7.18.85,7.13-5.02-.1-6.13-2.66-5.93-3.62Z"/>
        <path class="cls-2" d="M144.05,48.49c-.8-.35-1.56-.9-1.91-1.76-.2-.55-.2-1.15-.2-1.76v-1.41c0-.4,0-.75.1-1.1.2-.75.75-1.36,1.46-1.66s1.56-.25,2.21.1c.6.3,1.1.9,1.31,1.56.4,1.21-.15,2.56.25,3.77.2.6.6,1.15.75,1.81.05.15.05.35,0,.5-.15.55-1.36.45-1.81.4-.75,0-1.51-.15-2.16-.45Z"/>
        <path class="cls-2" d="M151.94,39.35c.2-.55.3-1.1.25-1.71-.05-.35-.15-.7-.35-.95-.35-.4-.9-.5-1.41-.4s-.9.45-1.21.85-.5.85-.7,1.36c-.25.55-.45,1.15-.55,1.81-.05.6.1,1.31.5,1.76.45.5,1.26.7,1.81.3.3-.2.35-.45.4-.75.05-.4.35-.7.55-1,.25-.4.55-.8.7-1.26Z"/>
        <path class="cls-2" d="M153.59,42.11c-.05-.75-.1-1.51.1-2.26.2-.7.8-1.41,1.51-1.51s1.41.3,1.91.85c.5.55.85,1.26,1,2.01.1.45.1.95.25,1.41.15.5.4,1,.55,1.56s.05,1.15-.35,1.51c-.55.45-1.46.25-1.96.7-.4.4-.35,1.05-.15,1.56.35.9,1.05,1.56.75,2.61-.15.55-.45,1-.85,1.41-.55.65-1.31,1.15-2.11,1.36-.6.15-1.51.25-2.06-.1-.6-.35-1.26-.6-1.76-1.15-.65-.75-.95-1.76-.9-2.76s.4-1.96.9-2.81c.9-1.56,2.01-3.06,3.16-4.37Z"/>
        <path class="cls-9" d="M154.25,68.88c-.8,1-2.16,1.56-3.46,1.41-.5-.05-.95-.25-1.46-.35-.1-.05-.2-.05-.3-.1-.1,0-.15-.05-.25-.05-.2-.05-.4-.1-.55-.1h0c-.2-.05-.45-.05-.65-.05-.15,0-.3,0-.4.05,0-.1-.05-.15-.05-.25-.05-.15-.15-.35-.25-.5-.15-.25-.3-.4-.5-.6-.1-.1-.2-.15-.3-.25-.05,0-.05-.05-.1-.05-.3-.15-.6-.3-.85-.55-.4-.45-.45-1.1-.45-1.71,0-.55,0-1.15.4-1.56.3-.3.75-.4,1-.75.15-.2.15-.5.3-.7.25-.3.8-.25,1.1-.5.2-.2.25-.45.25-.7,0-.15-.05-.3-.05-.45q0-.05-.05-.1c-.1-.35-.25-.75-.15-1.1.15-.55.8-.85,1.36-.9.55-.1,1.15-.05,1.71.1.2.05.4.1.6.2.05,0,.15.05.2.1.45.25.9.55,1.1,1.05.15.35.15.75.1,1.1h0c0,.15-.05.35-.05.5s-.05.35-.1.5c-.05.2-.1.45-.1.65s0,.4.05.55c.05.2.15.4.15.6v.1c0,.4-.2.75-.35,1.1q0,.05-.05.1c-.15.4-.3.85-.1,1.21,0,0,0,.05.05.05.05.05.1.1.15.15h0c.2.15.45.2.7.25.3.05.65,0,.95.05s.6.25.7.6c.05.3-.1.65-.3.9Z"/>
        <path class="cls-14" d="M151.23,73.85c2.36-3.46,4.37-7.23,6.43-10.9.2-.35,1.31-1.81,1.1-1.91-.65-.3-1.31,1.15-1.56,1.51-1.1,1.71-2.16,3.41-3.11,5.22-.55,1-2.46,4.77-2.96,5.83-.45.95.65-.6.1.25Z"/>
        <path class="cls-3" d="M158.21,70.23c-.15-.05-.25-.2-.15-.35.35-.55,1.15-1.76,2.36-2.41,1.61-.85,3.16-1,3.41-.4s-1.76,1.15-1.76,1.41c0,.2,4.57-.25,4.57.95s-2.66.9-2.66.9c0,0,.45.75-.3,1.51-.65.7-3.87-1.26-5.47-1.61Z"/>
        <path class="cls-10" d="M148.87,42.82c.3-.5.6-1,1.1-1.41.95-.7,2.31-.75,3.36-.15s1.76,1.71,1.91,2.86c.05.45.1.9-.05,1.31-.2.6-.65,1.15-1.15,1.51-.5.4-1.1.65-1.71.9-.85.35-1.76.75-2.61.5-.4-.1-.8-.35-1.1-.65-.25-.2-.65-.45-.7-.75-.1-.4,0-.95.05-1.36.05-.45.15-.9.3-1.36.15-.5.35-.95.6-1.41Z"/>
        <path class="cls-18" d="M163.34,57.73c-.15,1.26-.55,2.51-1.36,3.46-.35.45-1.05.95-1.81,1.26-.6.05-1.1-.05-1.36-.4-.75-.9-.7-1.1-1.86-1.56q-.05,0-.1-.05c.3-1.86,1.76-3.87,3.21-4.62.55-.3,1.1-.5,1.76-.45.6.05,1.21.4,1.46.9.15.5.1,1,.05,1.46Z"/>
        <path class="cls-15" d="M129.34,76.71c.9.75,2.86,1.76,5.62.15,1.36-.8,2.46-2.01,3.21-3.36.6-1.15,1.41-2.76,1.76-4.27.45-1.81-.6-3.67-2.36-4.22-.8-.25-1.81-.3-2.81.15-.4.15-.8,0-1-.4-.45-.95-1.56-2.31-3.87-1.66-.85.25-1.56.85-2.01,1.61-.5.9-1.05,2.41-.9,4.57.05.45-.3.75-.75.75-.65-.05-1.71.3-3.01,1.76-.9,1-1.05,2.56-.25,3.67.7.95,2.06,1.66,4.77.95.55-.15,1.15-.05,1.61.3Z"/>
        <path class="cls-7" d="M131.6,68.53c-.5.55-.75,1.26-.8,2.01,0,.1-.1.2-.2.2-.3,0-.6-.15-.85-.3-.15-.1-.3-.2-.45-.3-.4-.25-.9-.2-1.26.05-.55.45-.3,1.26.25,1.51.45.2.9.15,1.36.15s.85.05,1.26.2c.6.25,1.31.45,1.71,1,.2.25.3.55.45.8s.45.5.75.5c.4,0,.7-.5.5-.85-.15-.35-.6-.5-.85-.8s-.25-.7-.3-1.05c-.1-.5-.3-.95-.5-1.41-.2-.5-.5-1.1-.75-1.66,0-.15-.2-.15-.3-.05Z"/>
        <path class="cls-7" d="M132.15,68.23c-.05-.5.35-1,.8-1.1.5-.1,1,.2,1.15.7.2.55-.15,1.26.15,1.81.2.35.6.5.9.8.35.35.5.9.35,1.36-.2.45-.75.75-1.21.6-.3-.1-.55-.35-.7-.65s-.2-.6-.25-.9c-.1-.45-.1-1.21-.35-1.61-.3-.35-.85-.45-.85-1Z"/>
        <path class="cls-8" d="M151.94,48.44c-.05-.25-.35-.35-.65-.35l.05-.05c.2-.2.4-.5.2-.75-.2-.2-.55-.05-.8-.1-.15,0-.15-.1-.2-.2-.05-.3-.4-.5-.7-.45-.35.05-.55-.05-.6-.15-.05-.25,0-.35-.15-.55-.15-.2-.45-.35-.65-.25-.15.05-.25.25-.35.4s-.25.3-.45.25-.25-.3-.45-.35c-.2-.1-.4.05-.5.25-.05.2,0,.4.05.6.3,1.15.95,2.56,1.96,3.36.35.3.85.3,1.31.3.3,0,1.81-.1,1.86-.5.05-.2-.1-.3-.25-.45.1-.1.2-.25.25-.35.05-.25.15-.45.1-.65Z"/>
        <path class="cls-11" d="M150.88,73.55c.45-.35,1.1-.6,1.66-.4.2.05.35.15.5.25.25.15.5.3.8.45.25.15.5.3.7.55s.35.55.25.85c-.1.4-.45.65-.85.7-.4.05-.8-.05-1.15-.1-.4-.1-.8-.15-1.15-.05-.35.1-.7.35-1.05.5-1.91.8-.35-2.26.3-2.76Z"/>
        <path class="cls-14" d="M155.4,76.71c-.3-.35-.8-.35-1.26-.25-.9.3-1.56,1.15-2.36,1.71-.45.3-.95.5-1.51.65-.05,0-.2.05-.3.05-.55-.1-1.21,0-1.71.25-1.15.6-2.56,1.21-3.21,1.21,0-.2.05-.4.05-.5.05-.95.4-2.76.55-4.77.15-1.96,2.06-6.48,1.56-5.98s-1.96,6.33-2.51,6.38c-.55.05-1.46-6.08-1.61-7.43-.15-1.36.9-4.72.75-4.72s-1.15,3.77-1.15,3.77c0,0-1.05-2.46-1.31-3.21s-.5-1.76-.55-2.66c-.05-.85-.55-5.52-1.05-5.47s.35,4.77.05,4.82-1-.85-1.41-1.71-1.36-3.21-1.66-3.11c-.3.1.9,2.81.9,2.81-1.31-.75,2.31,4.57,2.31,4.57,0,0,1.46,2.26,1.86,3.31.4,1.05.9,4.92.9,6.18s.85,7.08,1.26,8.29.6,3.92.35,4.82-.75.45-1.1-1.05c-.3-1.51-1.81-4.37-2.91-5.47s-3.57-5.32-3.57-5.32c0,0-.45.4-.1.95.35.55,1.86,3.26,2.31,4.27.45,1.05,2.31,2.96,2.36,3.87.05.85,1.15,2.36.65,2.36-.5.05-6.68-1.05-7.33-1.05s-.9.6-1.96.55c-1.05-.05-.4,1.26.75,2.06s3.41.6,4.37-.25c.95-.85,2.56-.9,3.77-.6,1.15.3,1.96,1.15,2.71,2.91.2.45.5-.1.5-3.67.35-.9,1.05-2.06,2.26-2.96,0,0,2.71,0,3.62-1.76.35-.7.25-1.15-.05-1.41.05-.05.15-.1.2-.15.75-.45,1.66-.7,2.51-.6.2,0,.4.05.55,0,.2-.05.35-.25.3-.4-.5.05-1,.15-1.51.2.55-.9,1.66-1.51,2.71-1.46ZM144.81,84.29v-.3c0-.4.15-1.81.25-2.96.55,0,1.66-.05,2.06-.1.55-.05-1.51,1.71-2.31,3.36Z"/>
        <path class="cls-5" d="M152.49,61.6c0,.15-.05.35-.05.5s-.05.35-.1.5l-5.27,6.78c-.05-.15-.15-.35-.25-.5l5.67-7.28Z"/>
        <path class="cls-5" d="M152.44,64.51c0,.4-.2.75-.35,1.1l-3.92,4.02h0c-.2-.05-.45-.05-.65-.05l4.92-5.07Z"/>
        <path class="cls-5" d="M152.14,67.07c0,.05,0,.15-.05.2l-2.76,2.61c-.1-.05-.2-.05-.3-.1-.1,0-.15-.05-.25-.05l3.01-2.81c.05-.05.15-.1.25-.05.05,0,.1.05.1.05v.15h0Z"/>
        <path class="cls-5" d="M151.54,61.75l-5.27,6.58c-.1-.1-.2-.15-.3-.25-.05,0-.05-.05-.1-.05l5.27-6.58c.1-.1.25-.1.35-.05s.15.25.05.35Z"/>
        <path class="cls-5" d="M151.03,59.34l-3.41,2.26c0-.15-.05-.3-.05-.45q0-.05-.05-.1l2.91-1.91c.2.05.45.1.6.2Z"/>
        <path class="cls-5" d="M145.91,66.52c-.05,0-.1,0-.15-.05-.1-.1-.1-.25,0-.35l3.36-3.77c.1-.1.25-.1.35,0s.1.25,0,.35l-3.36,3.77c-.05,0-.15.05-.2.05Z"/>
        <path class="cls-5" d="M145.81,64.71c-.05,0-.15-.05-.2-.1-.1-.1-.1-.25.05-.35l2.56-2.16c.1-.1.25-.1.35.05.1.1.1.25-.05.35l-2.56,2.16c-.05,0-.1.05-.15.05Z"/>
        <path class="cls-4" d="M154,63.96c.35-.15.85-.25,1.1,0,.2.15.25.45.2.65-.05.25-.15.45-.3.65-.5.75-1.26,1.41-2.11,1.86-.3.15-.65.3-1,.25-.35,0-.7-.2-.85-.5-.15-.3-.05-.7.25-.9.3-.2.5-.4.75-.65.55-.55,1.26-1.05,1.96-1.36Z"/>
        <path class="cls-13" d="M140.64,85.7s-3.16-6.13-10.9-4.02c-.5.15-.65.8-.25,1.15,1.46,1.31,5.07,3.62,11.15,2.86Z"/>
      </g>
      <path class="cls-14" d="M145.06,115.03c0-.37-.24-.64-.55-.72-.25.09-.5.17-.77.23-.12.14-.18.31-.18.5,0,.3.25,6.83,1.36,11.2.1.35.4.55.75.55.1,0,.15-.05.15,0,.4-.1.65-.5.55-.9-1.1-4.17-1.31-10.8-1.31-10.85Z"/>
      <path class="cls-14" d="M141.39,124.92c-.2,0-.4-.1-.55-.25-.3-.3-.25-.8.05-1.05,1.36-1.21,1.56-5.57,1.36-8.03-.05-.4.3-.75.7-.8s.75.3.8.7c.05.75.5,7.18-1.86,9.29-.15.1-.3.15-.5.15Z"/>
      <path class="cls-9" d="M154.1,77.82c-.25.75-.25,1.61.25,2.21.7.8,1.96.7,2.96.45s2.01-.55,3.01-.9c.8-.25,1.61-.5,2.36-.75.4-.15.8-.3.95-.7.15-.45-.3-.9-.7-1.1s-.9-.3-1.26-.6c-.5-.45-.55-1.21-.85-1.76-.55-.9-1.81-1.1-2.81-.85-1.71.6-3.31,2.36-3.92,4.02Z"/>
      <path class="cls-6" d="M155.65,104.93c-.05.25-.15.45-.25.7-.1.3-.2.6-.35.9-.25.55-.55,1.1-.85,1.66-.3.5-.7,1-1.05,1.46-.4.45-.8.85-1.21,1.31-.4.4-.85.75-1.26,1.1s-.85.65-1.31.95c-.4.25-.8.5-1.21.75-.35.2-.7.4-1.1.6-.3.15-.6.3-.9.45-.2.1-.4.2-.6.3-.1.05-.2.1-.3.1l-7.78,3.11c-2.51,1-4.67,2.86-6.08,5.17-6.18,10.19-19.68,32.29-19.79,32.54-.1.15-.25.25-.4.25-.1,0-.2,0-.25-.05-.25-.15-.3-.45-.15-.7.15-.2,13.66-22.3,19.79-32.54,1.51-2.51,3.82-4.47,6.58-5.57l7.78-3.11c.1-.05.15-.05.25-.1.2-.1.4-.2.6-.25.3-.15.6-.3.9-.45.35-.2.75-.4,1.1-.6.4-.25.85-.5,1.26-.8.45-.3.85-.65,1.31-.95.45-.35.85-.75,1.26-1.15s.8-.85,1.15-1.31c.35-.45.7-.95,1-1.51s.55-1.1.75-1.66c.15-.4.3-.85.4-1.31.1-.4.15-.85.1-1.26,0-.6-.15-1.26-.35-1.81-.05-.1-.05-.2-.1-.3l.9-.4s.3.9.3.95c.15.7.25,1.41.2,2.11,0,.35-.05.7-.15,1.05-.1,0-.15.2-.2.35Z"/>
      <path class="cls-6" d="M155.6,96.6c-.2-.5-.65-.9-1.21-.95.7-2.36-.1-5.88-.3-6.53.25-.85.4-1.66.4-2.41v-.85c-.05-.6-.45-1.15-1.1-1.26-.6-.15-1.21.15-1.51.7-1.76,3.16-7.93,13.36-14.41,12.45.9-.75,2.56-2.06,4.27-2.96,1.66-.85,2.96-1.81,4.02-2.91.6-.65,1.1-1.21,1.36-1.71s.2-1.1-.15-1.51c-.35-.45-.95-.6-1.51-.4-3.41,1.26-11.7,4.57-14.91,7.53-.2.2-4.62,4.37-7.03,11.7-1.1,3.36-2.76,6.53-4.97,9.44-3.57,4.77-9.49,11.7-17.53,17.63-1,.7-1.96,1.56-2.91,2.51l-4.27,4.22c-.2.2-.2.5,0,.7.1.1.25.15.35.15.15,0,.25-.05.35-.15l4.27-4.22c.9-.9,1.86-1.71,2.81-2.41,8.08-5.98,14.11-13.01,17.73-17.83,2.26-3.01,3.97-6.28,5.12-9.74,2.36-7.08,6.73-11.25,6.78-11.3,3.21-2.91,12-6.33,14.61-7.33.2-.1.35.05.4.1.05.05.15.2.05.35-.2.4-.6.9-1.21,1.51-1,1-2.26,1.91-3.77,2.71-1.86.95-3.67,2.41-4.57,3.16-.3.25-.4.6-.3.95s.4.6.75.65c6.98,1.1,13.21-8.69,15.57-12.96.15-.25.35-.2.4-.2s.3.1.3.35v.75c-.05.8-.2,1.66-.5,2.56-2.81,8.74-7.28,11.85-7.33,11.9-.25.15-.3.45-.15.7.15.25.45.3.7.15.2-.1,4.27-2.96,7.23-10.95.25,1.61.35,3.72-.25,4.92-.25.2-.45.45-.55.75-1.81,5.42-5.22,7.58-5.27,7.58-.06.04-.11.08-.14.13.18.25.33.52.47.8.08,0,.15-.03.23-.08.15-.1,3.77-2.36,5.72-8.14.1-.25.35-.4.5-.4.1,0,.4,0,.5.35.1.3.15.7.2,1.15,0,1.1-.25,2.21-.8,3.26-.86,1.63-3.04,5.23-5.64,6.61.02.39.01.79-.03,1.18,2.98-1.25,5.39-5.01,6.57-7.24.65-1.21.95-2.51.95-3.77-.05-.55-.15-1.05-.3-1.46Z"/>
    </g>
  </g>
</svg>